<mxfile host="app.diagrams.net" agent="Mozilla/5.0 (Macintosh; Intel Mac OS X 10_15_7) AppleWebKit/537.36 (KHTML, like Gecko) Chrome/135.0.0.0 Safari/537.36" version="26.2.12">
  <diagram name="第 1 页" id="HZl34S4GJ9VKeLRVkQtJ">
    <mxGraphModel dx="685" dy="434" grid="1" gridSize="10" guides="1" tooltips="1" connect="1" arrows="1" fold="1" page="1" pageScale="1" pageWidth="827" pageHeight="1169" math="0" shadow="0">
      <root>
        <mxCell id="0" />
        <mxCell id="1" parent="0" />
        <mxCell id="ujUiz-KoESdx1gxo9VP4-1" value="VSCode Extension API" style="rounded=1;whiteSpace=wrap;html=1;" vertex="1" parent="1">
          <mxGeometry x="80" y="280" width="360" height="30" as="geometry" />
        </mxCell>
        <mxCell id="ujUiz-KoESdx1gxo9VP4-10" style="edgeStyle=orthogonalEdgeStyle;rounded=0;orthogonalLoop=1;jettySize=auto;html=1;exitX=0;exitY=0.5;exitDx=0;exitDy=0;entryX=0;entryY=0.5;entryDx=0;entryDy=0;" edge="1" parent="1" source="ujUiz-KoESdx1gxo9VP4-3" target="ujUiz-KoESdx1gxo9VP4-4">
          <mxGeometry relative="1" as="geometry" />
        </mxCell>
        <mxCell id="ujUiz-KoESdx1gxo9VP4-11" style="edgeStyle=orthogonalEdgeStyle;rounded=0;orthogonalLoop=1;jettySize=auto;html=1;entryX=0;entryY=0.5;entryDx=0;entryDy=0;exitX=0;exitY=0.5;exitDx=0;exitDy=0;" edge="1" parent="1" source="ujUiz-KoESdx1gxo9VP4-3" target="ujUiz-KoESdx1gxo9VP4-5">
          <mxGeometry relative="1" as="geometry" />
        </mxCell>
        <mxCell id="ujUiz-KoESdx1gxo9VP4-12" style="edgeStyle=orthogonalEdgeStyle;rounded=0;orthogonalLoop=1;jettySize=auto;html=1;exitX=0;exitY=0.5;exitDx=0;exitDy=0;entryX=0;entryY=0.5;entryDx=0;entryDy=0;" edge="1" parent="1" source="ujUiz-KoESdx1gxo9VP4-3" target="ujUiz-KoESdx1gxo9VP4-8">
          <mxGeometry relative="1" as="geometry" />
        </mxCell>
        <mxCell id="ujUiz-KoESdx1gxo9VP4-3" value="Blackboard User Database" style="rounded=1;whiteSpace=wrap;html=1;" vertex="1" parent="1">
          <mxGeometry x="120" y="490" width="280" height="30" as="geometry" />
        </mxCell>
        <mxCell id="ujUiz-KoESdx1gxo9VP4-4" value="bb-crawler" style="rounded=0;whiteSpace=wrap;html=1;" vertex="1" parent="1">
          <mxGeometry x="120" y="320" width="120" height="30" as="geometry" />
        </mxCell>
        <mxCell id="ujUiz-KoESdx1gxo9VP4-5" value="todo-list" style="rounded=0;whiteSpace=wrap;html=1;" vertex="1" parent="1">
          <mxGeometry x="120" y="360" width="120" height="30" as="geometry" />
        </mxCell>
        <mxCell id="ujUiz-KoESdx1gxo9VP4-26" style="edgeStyle=orthogonalEdgeStyle;rounded=0;orthogonalLoop=1;jettySize=auto;html=1;entryX=1;entryY=0.5;entryDx=0;entryDy=0;" edge="1" parent="1" source="ujUiz-KoESdx1gxo9VP4-6" target="ujUiz-KoESdx1gxo9VP4-4">
          <mxGeometry relative="1" as="geometry" />
        </mxCell>
        <mxCell id="ujUiz-KoESdx1gxo9VP4-27" style="edgeStyle=orthogonalEdgeStyle;rounded=0;orthogonalLoop=1;jettySize=auto;html=1;entryX=1;entryY=0.5;entryDx=0;entryDy=0;" edge="1" parent="1" source="ujUiz-KoESdx1gxo9VP4-6" target="ujUiz-KoESdx1gxo9VP4-5">
          <mxGeometry relative="1" as="geometry" />
        </mxCell>
        <mxCell id="ujUiz-KoESdx1gxo9VP4-28" style="edgeStyle=orthogonalEdgeStyle;rounded=0;orthogonalLoop=1;jettySize=auto;html=1;entryX=1;entryY=0.5;entryDx=0;entryDy=0;" edge="1" parent="1" source="ujUiz-KoESdx1gxo9VP4-6" target="ujUiz-KoESdx1gxo9VP4-8">
          <mxGeometry relative="1" as="geometry" />
        </mxCell>
        <mxCell id="ujUiz-KoESdx1gxo9VP4-29" style="edgeStyle=orthogonalEdgeStyle;rounded=0;orthogonalLoop=1;jettySize=auto;html=1;entryX=1;entryY=0.5;entryDx=0;entryDy=0;" edge="1" parent="1" source="ujUiz-KoESdx1gxo9VP4-6" target="ujUiz-KoESdx1gxo9VP4-7">
          <mxGeometry relative="1" as="geometry" />
        </mxCell>
        <mxCell id="ujUiz-KoESdx1gxo9VP4-6" value="ai-integration" style="rounded=0;whiteSpace=wrap;html=1;" vertex="1" parent="1">
          <mxGeometry x="280" y="340" width="120" height="30" as="geometry" />
        </mxCell>
        <mxCell id="ujUiz-KoESdx1gxo9VP4-7" value="collaboration-edit" style="rounded=0;whiteSpace=wrap;html=1;" vertex="1" parent="1">
          <mxGeometry x="120" y="440" width="120" height="30" as="geometry" />
        </mxCell>
        <mxCell id="ujUiz-KoESdx1gxo9VP4-8" value="note-taking" style="rounded=0;whiteSpace=wrap;html=1;" vertex="1" parent="1">
          <mxGeometry x="120" y="400" width="120" height="30" as="geometry" />
        </mxCell>
        <mxCell id="ujUiz-KoESdx1gxo9VP4-13" value="" style="endArrow=none;dashed=1;html=1;rounded=0;" edge="1" parent="1">
          <mxGeometry width="50" height="50" relative="1" as="geometry">
            <mxPoint x="80" y="310" as="sourcePoint" />
            <mxPoint x="440" y="310" as="targetPoint" />
          </mxGeometry>
        </mxCell>
        <mxCell id="ujUiz-KoESdx1gxo9VP4-14" value="" style="endArrow=none;dashed=1;html=1;rounded=0;" edge="1" parent="1">
          <mxGeometry width="50" height="50" relative="1" as="geometry">
            <mxPoint x="80" y="480" as="sourcePoint" />
            <mxPoint x="440" y="480" as="targetPoint" />
          </mxGeometry>
        </mxCell>
        <mxCell id="ujUiz-KoESdx1gxo9VP4-15" value="" style="endArrow=none;dashed=1;html=1;rounded=0;" edge="1" parent="1">
          <mxGeometry width="50" height="50" relative="1" as="geometry">
            <mxPoint x="440" y="480" as="sourcePoint" />
            <mxPoint x="440" y="310" as="targetPoint" />
          </mxGeometry>
        </mxCell>
        <mxCell id="ujUiz-KoESdx1gxo9VP4-16" value="" style="endArrow=none;dashed=1;html=1;rounded=0;" edge="1" parent="1">
          <mxGeometry width="50" height="50" relative="1" as="geometry">
            <mxPoint x="80" y="310" as="sourcePoint" />
            <mxPoint x="80" y="480" as="targetPoint" />
          </mxGeometry>
        </mxCell>
        <mxCell id="ujUiz-KoESdx1gxo9VP4-17" value="user workspace&lt;br&gt;&amp;amp;&lt;br&gt;configuration" style="ellipse;whiteSpace=wrap;html=1;" vertex="1" parent="1">
          <mxGeometry x="280" y="390" width="120" height="70" as="geometry" />
        </mxCell>
        <mxCell id="ujUiz-KoESdx1gxo9VP4-19" style="edgeStyle=orthogonalEdgeStyle;rounded=0;orthogonalLoop=1;jettySize=auto;html=1;exitX=1;exitY=0.5;exitDx=0;exitDy=0;entryX=1;entryY=0.5;entryDx=0;entryDy=0;" edge="1" parent="1" source="ujUiz-KoESdx1gxo9VP4-18" target="ujUiz-KoESdx1gxo9VP4-6">
          <mxGeometry relative="1" as="geometry" />
        </mxCell>
        <mxCell id="ujUiz-KoESdx1gxo9VP4-18" value="Third-Party AI Server" style="rounded=1;whiteSpace=wrap;html=1;" vertex="1" parent="1">
          <mxGeometry x="120" y="530" width="280" height="30" as="geometry" />
        </mxCell>
        <mxCell id="ujUiz-KoESdx1gxo9VP4-23" value="" style="ellipse;whiteSpace=wrap;html=1;align=center;aspect=fixed;fillColor=none;strokeColor=none;resizable=0;perimeter=centerPerimeter;rotatable=0;allowArrows=0;points=[];outlineConnect=1;" vertex="1" parent="1">
          <mxGeometry x="240" y="670" width="10" height="10" as="geometry" />
        </mxCell>
      </root>
    </mxGraphModel>
  </diagram>
</mxfile>
